<mxfile host="65bd71144e">
    <diagram id="mwO3cHVXU0J07Azhgd6U" name="Page-1">
        <mxGraphModel dx="1887" dy="1134" grid="1" gridSize="10" guides="1" tooltips="1" connect="1" arrows="1" fold="1" page="1" pageScale="1" pageWidth="850" pageHeight="1100" math="0" shadow="0">
            <root>
                <mxCell id="0"/>
                <mxCell id="1" parent="0"/>
                <mxCell id="4" style="edgeStyle=none;html=1;" edge="1" parent="1" source="2" target="3">
                    <mxGeometry relative="1" as="geometry"/>
                </mxCell>
                <mxCell id="2" value="Cliente" style="rounded=1;whiteSpace=wrap;html=1;" vertex="1" parent="1">
                    <mxGeometry x="365" y="260" width="120" height="60" as="geometry"/>
                </mxCell>
                <mxCell id="8" style="edgeStyle=none;html=1;" edge="1" parent="1" source="3" target="6">
                    <mxGeometry relative="1" as="geometry"/>
                </mxCell>
                <mxCell id="9" style="edgeStyle=none;html=1;entryX=0.5;entryY=0;entryDx=0;entryDy=0;" edge="1" parent="1" source="3" target="5">
                    <mxGeometry relative="1" as="geometry">
                        <Array as="points">
                            <mxPoint x="260" y="380"/>
                        </Array>
                    </mxGeometry>
                </mxCell>
                <mxCell id="11" style="edgeStyle=none;html=1;entryX=0.5;entryY=0;entryDx=0;entryDy=0;" edge="1" parent="1" source="3" target="7">
                    <mxGeometry relative="1" as="geometry">
                        <Array as="points">
                            <mxPoint x="580" y="380"/>
                        </Array>
                    </mxGeometry>
                </mxCell>
                <mxCell id="3" value="site" style="rounded=0;whiteSpace=wrap;html=1;fillStyle=auto;" vertex="1" parent="1">
                    <mxGeometry x="365" y="350" width="120" height="60" as="geometry"/>
                </mxCell>
                <mxCell id="34" style="edgeStyle=none;html=1;entryX=0.5;entryY=0;entryDx=0;entryDy=0;" edge="1" parent="1" source="5" target="32">
                    <mxGeometry relative="1" as="geometry"/>
                </mxCell>
                <mxCell id="5" value="conversar com agente de carros" style="rounded=0;whiteSpace=wrap;html=1;" vertex="1" parent="1">
                    <mxGeometry x="200" y="470" width="120" height="60" as="geometry"/>
                </mxCell>
                <mxCell id="6" value="Lista de carros disponiveis" style="rounded=0;whiteSpace=wrap;html=1;" vertex="1" parent="1">
                    <mxGeometry x="365" y="470" width="120" height="60" as="geometry"/>
                </mxCell>
                <mxCell id="7" value="quero vender meu carro" style="rounded=0;whiteSpace=wrap;html=1;" vertex="1" parent="1">
                    <mxGeometry x="520" y="470" width="120" height="60" as="geometry"/>
                </mxCell>
                <mxCell id="14" value="ConteudoVendaDeCarro" style="swimlane;fontStyle=0;childLayout=stackLayout;horizontal=1;startSize=30;horizontalStack=0;resizeParent=1;resizeParentMax=0;resizeLast=0;collapsible=1;marginBottom=0;whiteSpace=wrap;html=1;fillColor=#fff2cc;strokeColor=#d6b656;rounded=1;" vertex="1" parent="1">
                    <mxGeometry x="680" y="380" width="270" height="230" as="geometry">
                        <mxRectangle x="520" y="570" width="110" height="30" as="alternateBounds"/>
                    </mxGeometry>
                </mxCell>
                <mxCell id="15" value="&lt;div&gt;uuid : UUID&lt;/div&gt;fotos : List&amp;lt;Foto&amp;gt;&lt;div&gt;nomeCarro: String&lt;/div&gt;&lt;div&gt;descricão : String&lt;/div&gt;&lt;div&gt;marcaModelo : String&lt;/div&gt;&lt;div&gt;anoModelo: Integer&lt;/div&gt;&lt;div&gt;quilometragem : Integer&lt;/div&gt;&lt;div&gt;tipoCombustivel : TipoCombustivelEnum&lt;/div&gt;&lt;div&gt;cambio : TipoCambioEnum&lt;/div&gt;&lt;div&gt;cor: CorEnum&lt;/div&gt;&lt;div&gt;placa : String&lt;/div&gt;&lt;div&gt;precoPedido: Integer&lt;/div&gt;&lt;div&gt;aceitaNegociar: Boolean&lt;/div&gt;" style="text;strokeColor=none;fillColor=none;align=left;verticalAlign=middle;spacingLeft=4;spacingRight=4;overflow=hidden;points=[[0,0.5],[1,0.5]];portConstraint=eastwest;rotatable=0;whiteSpace=wrap;html=1;" vertex="1" parent="14">
                    <mxGeometry y="30" width="270" height="200" as="geometry"/>
                </mxCell>
                <mxCell id="18" style="edgeStyle=none;html=1;" edge="1" parent="1" source="7">
                    <mxGeometry relative="1" as="geometry">
                        <mxPoint x="680" y="500" as="targetPoint"/>
                        <Array as="points">
                            <mxPoint x="660" y="500"/>
                        </Array>
                    </mxGeometry>
                </mxCell>
                <mxCell id="24" style="edgeStyle=none;html=1;dashed=1;" edge="1" parent="1" source="19">
                    <mxGeometry relative="1" as="geometry">
                        <mxPoint x="1070" y="240" as="targetPoint"/>
                    </mxGeometry>
                </mxCell>
                <mxCell id="26" style="edgeStyle=none;html=1;exitX=1;exitY=0;exitDx=0;exitDy=0;entryX=0;entryY=0.5;entryDx=0;entryDy=0;" edge="1" parent="1" source="19" target="28">
                    <mxGeometry relative="1" as="geometry">
                        <mxPoint x="1260" y="360" as="targetPoint"/>
                        <Array as="points">
                            <mxPoint x="1180" y="340"/>
                            <mxPoint x="1190" y="330"/>
                        </Array>
                    </mxGeometry>
                </mxCell>
                <mxCell id="29" style="edgeStyle=none;html=1;exitX=1;exitY=1;exitDx=0;exitDy=0;" edge="1" parent="1" source="19">
                    <mxGeometry relative="1" as="geometry">
                        <mxPoint x="1270" y="650" as="targetPoint"/>
                        <Array as="points">
                            <mxPoint x="1180" y="650"/>
                        </Array>
                    </mxGeometry>
                </mxCell>
                <mxCell id="19" value="Analise Inteligence&amp;nbsp;" style="rounded=1;whiteSpace=wrap;html=1;" vertex="1" parent="1">
                    <mxGeometry x="1010" y="465" width="120" height="60" as="geometry"/>
                </mxCell>
                <mxCell id="21" style="edgeStyle=none;html=1;" edge="1" parent="1" source="14">
                    <mxGeometry relative="1" as="geometry">
                        <mxPoint x="1000" y="495" as="targetPoint"/>
                    </mxGeometry>
                </mxCell>
                <mxCell id="22" value="&lt;h1 style=&quot;margin-top: 0px;&quot;&gt;&lt;font style=&quot;font-size: 15px;&quot;&gt;Analise Inteligence&lt;/font&gt;&lt;/h1&gt;&lt;p&gt;&lt;font style=&quot;font-size: 11px;&quot;&gt;O usuário vai analisar a proposta do cliente, e dar as opções de negociamento.&lt;/font&gt;&lt;/p&gt;" style="text;html=1;whiteSpace=wrap;overflow=hidden;rounded=0;" vertex="1" parent="1">
                    <mxGeometry x="1000" y="130" width="190" height="120" as="geometry"/>
                </mxCell>
                <mxCell id="28" value="Negociação feita" style="rounded=1;whiteSpace=wrap;html=1;" vertex="1" parent="1">
                    <mxGeometry x="1180" y="310" width="120" height="60" as="geometry"/>
                </mxCell>
                <mxCell id="30" value="Negociação não feita" style="rounded=1;whiteSpace=wrap;html=1;" vertex="1" parent="1">
                    <mxGeometry x="1180" y="620" width="120" height="60" as="geometry"/>
                </mxCell>
                <mxCell id="36" style="edgeStyle=none;html=1;entryX=0.5;entryY=0;entryDx=0;entryDy=0;" edge="1" parent="1" source="32" target="35">
                    <mxGeometry relative="1" as="geometry"/>
                </mxCell>
                <mxCell id="32" value="ConteudoMensagem" style="swimlane;whiteSpace=wrap;html=1;startSize=23;rounded=1;fillColor=#fff2cc;strokeColor=#d6b656;" vertex="1" parent="1">
                    <mxGeometry x="180" y="560" width="160" height="60" as="geometry"/>
                </mxCell>
                <mxCell id="33" value="idRequisicao: uuid&lt;div&gt;conteudo: String&lt;/div&gt;" style="text;html=1;align=left;verticalAlign=top;whiteSpace=wrap;rounded=0;" vertex="1" parent="32">
                    <mxGeometry y="20" width="120" height="40" as="geometry"/>
                </mxCell>
                <mxCell id="38" style="edgeStyle=none;html=1;dashed=1;entryX=1;entryY=0.5;entryDx=0;entryDy=0;" edge="1" parent="1" source="35" target="37">
                    <mxGeometry relative="1" as="geometry">
                        <mxPoint x="80" y="680" as="targetPoint"/>
                    </mxGeometry>
                </mxCell>
                <mxCell id="35" value="agente de ajuda ao cliente" style="rounded=1;whiteSpace=wrap;html=1;" vertex="1" parent="1">
                    <mxGeometry x="180" y="650" width="160" height="60" as="geometry"/>
                </mxCell>
                <mxCell id="37" value="&lt;h1 style=&quot;margin-top: 0px;&quot;&gt;Agente De ajuda Ao Cliente&lt;/h1&gt;&lt;p&gt;Uma inteligecia utilizando IA, ira analisar o que o cliente está em busca, verificar o nosso estoque de carros, e aconselhar os carros disponíveis na loja. Caso haja interesse, conseguir marcar um horário na loja para visitar o carro.&lt;/p&gt;" style="text;html=1;whiteSpace=wrap;overflow=hidden;rounded=0;" vertex="1" parent="1">
                    <mxGeometry x="-60" y="590" width="190" height="180" as="geometry"/>
                </mxCell>
            </root>
        </mxGraphModel>
    </diagram>
</mxfile>